<svg xmlns="http://www.w3.org/2000/svg" xmlns:xlink="http://www.w3.org/1999/xlink" contentStyleType="text/css" data-diagram-type="CLASS" height="1240px" preserveAspectRatio="none" style="width:720px;height:1240px;background:#777777;" version="1.1" viewBox="0 0 720 1240" width="720px" zoomAndPan="magnify"><defs/><g><rect fill="#777777" height="1240" style="stroke:none;stroke-width:1;" width="720" x="0" y="0"/><!--cluster core--><g class="cluster" data-entity="core" data-source-line="7" data-uid="ent0002" id="cluster_core"><rect fill="none" height="1141" rx="2.5" ry="2.5" style="stroke:#000000;stroke-width:1.5;" width="707" x="7" y="93"/><text fill="#000000" font-family="sans-serif" font-size="14" font-weight="bold" lengthAdjust="spacing" textLength="30.4919" x="345.2541" y="109.9659">core</text></g><!--class ProjectExplorer--><g class="entity" data-entity="ProjectExplorer" data-source-line="8" data-uid="ent0003" id="entity_ProjectExplorer"><rect fill="#2E2E2E" height="551.3842" rx="2.5" ry="2.5" style="stroke:#1B1B1B;stroke-width:0.5;" width="400.7703" x="22.5" y="399"/><ellipse cx="179.5709" cy="412" fill="#880000" rx="8" ry="8" style="stroke:#181818;stroke-width:1;"/><path d="M179.3991,409.4219 Q178.4303,409.4219 177.9303,410.1406 Q177.4303,410.8594 177.4303,412.0938 Q177.4303,413.3438 177.8834,414.0313 Q178.3522,414.7188 179.3991,414.7188 Q179.8834,414.7188 180.3522,414.6094 Q180.8366,414.5 181.3991,414.3125 L181.3991,415.7031 Q180.8834,415.9063 180.3678,416 Q179.8678,416.1094 179.2428,416.1094 Q178.0241,416.1094 177.2428,415.6094 Q176.4616,415.1094 176.0866,414.2031 Q175.7116,413.2969 175.7116,412.0781 Q175.7116,410.8906 176.1334,409.9844 Q176.5709,409.0625 177.3834,408.5469 Q178.2116,408.0313 179.3991,408.0313 Q179.9772,408.0313 180.5553,408.1875 Q181.1491,408.3281 181.6959,408.5938 L181.1491,409.9375 Q180.7116,409.7344 180.2584,409.5781 Q179.8209,409.4219 179.3991,409.4219 Z " fill="#000000"/><text fill="#AAAAAA" font-family="Verdana" font-size="11" lengthAdjust="spacing" textLength="79.6284" x="195.5709" y="416.268">ProjectExplorer</text><line style="stroke:#1B1B1B;stroke-width:0.5;" x1="23.5" x2="422.2703" y1="425" y2="425"/><rect fill="none" height="6" style="stroke:#C82930;stroke-width:1;" width="6" x="30.5" y="434.4909"/><text fill="#AAAAAA" font-family="sans-serif" font-size="11" lengthAdjust="spacing" textLength="220.5924" x="39.5" y="440.7589">List&lt;Pattern&gt; excludedPatterns {readOnly}</text><rect fill="none" height="6" style="stroke:#C82930;stroke-width:1;" width="6" x="30.5" y="449.4728"/><text fill="#AAAAAA" font-family="sans-serif" font-size="11" lengthAdjust="spacing" textLength="226.0264" x="39.5" y="455.7408">List&lt;String&gt; excludedDirectories {readOnly}</text><rect fill="none" height="6" style="stroke:#C82930;stroke-width:1;" width="6" x="30.5" y="464.4547"/><text fill="#AAAAAA" font-family="sans-serif" font-size="11" lengthAdjust="spacing" textLength="70.5095" x="39.5" y="470.7227">int maxDepth</text><rect fill="none" height="6" style="stroke:#C82930;stroke-width:1;" width="6" x="30.5" y="479.4366"/><text fill="#AAAAAA" font-family="sans-serif" font-size="11" lengthAdjust="spacing" textLength="148.455" x="39.5" y="485.7046">Path currentProjectRootPath</text><rect fill="none" height="6" style="stroke:#C82930;stroke-width:1;" width="6" x="30.5" y="494.4185"/><text fill="#AAAAAA" font-family="sans-serif" font-size="11" lengthAdjust="spacing" textLength="377.7703" x="39.5" y="500.6865">Map&lt;String,List&lt;File&gt;&gt; currentProjectGroupedFilesByPackage {readOnly}</text><rect fill="none" height="6" style="stroke:#C82930;stroke-width:1;" width="6" x="30.5" y="509.4004"/><text fill="#AAAAAA" font-family="sans-serif" font-size="11" lengthAdjust="spacing" textLength="283.545" x="39.5" y="515.6684">List&lt;ExplorationError&gt; currentProjectErrors {readOnly}</text><rect fill="none" height="6" style="stroke:#C82930;stroke-width:1;" width="6" x="30.5" y="524.3823"/><text fill="#AAAAAA" font-family="sans-serif" font-size="11" lengthAdjust="spacing" textLength="150.3359" x="39.5" y="530.6502">long currentProjectTimeStart</text><rect fill="none" height="6" style="stroke:#C82930;stroke-width:1;" width="6" x="30.5" y="539.3642"/><text fill="#AAAAAA" font-family="sans-serif" font-size="11" lengthAdjust="spacing" textLength="145.3199" x="39.5" y="545.6321">long currentProjectTimeEnd</text><line style="stroke:#1B1B1B;stroke-width:0.5;" x1="23.5" x2="422.2703" y1="552.8551" y2="552.8551"/><ellipse cx="33.5" cy="565.346" fill="#84BE84" rx="3" ry="3" style="stroke:#038048;stroke-width:1;"/><text fill="#AAAAAA" font-family="sans-serif" font-size="11" lengthAdjust="spacing" textLength="86.2284" x="39.5" y="568.614">ProjectExplorer()</text><ellipse cx="33.5" cy="580.3279" fill="#84BE84" rx="3" ry="3" style="stroke:#038048;stroke-width:1;"/><text fill="#AAAAAA" font-family="sans-serif" font-size="11" lengthAdjust="spacing" textLength="156.7379" x="39.5" y="583.5959">ProjectExplorer(int maxDepth)</text><text fill="#AAAAAA" font-family="sans-serif" font-size="11" lengthAdjust="spacing" textLength="2.86" x="39.5" y="598.5778">&#160;</text><rect fill="#F24D5C" height="6" style="stroke:#C82930;stroke-width:1;" width="6" x="30.5" y="607.2917"/><text fill="#AAAAAA" font-family="sans-serif" font-size="11" lengthAdjust="spacing" textLength="150.4789" x="39.5" y="613.5597">void setupExcludedPatterns()</text><rect fill="#F24D5C" height="6" style="stroke:#C82930;stroke-width:1;" width="6" x="30.5" y="622.2736"/><text fill="#AAAAAA" font-family="sans-serif" font-size="11" lengthAdjust="spacing" textLength="163.2718" x="39.5" y="628.5416">void setupExcludedDirectories()</text><ellipse cx="33.5" cy="640.2555" fill="#84BE84" rx="3" ry="3" style="stroke:#038048;stroke-width:1;"/><text fill="#AAAAAA" font-family="sans-serif" font-size="11" lengthAdjust="spacing" textLength="208.1405" x="39.5" y="643.5235">void addExcludedPattern(String pattern)</text><ellipse cx="33.5" cy="655.2374" fill="#84BE84" rx="3" ry="3" style="stroke:#038048;stroke-width:1;"/><text fill="#AAAAAA" font-family="sans-serif" font-size="11" lengthAdjust="spacing" textLength="250.6882" x="39.5" y="658.5053">void addEcludedDirectory(String directoryName)</text><ellipse cx="33.5" cy="670.2193" fill="#84BE84" rx="3" ry="3" style="stroke:#038048;stroke-width:1;"/><text fill="#AAAAAA" font-family="sans-serif" font-size="11" lengthAdjust="spacing" textLength="146.5079" x="39.5" y="673.4872">void clearExcludedPatterns()</text><ellipse cx="33.5" cy="685.2011" fill="#84BE84" rx="3" ry="3" style="stroke:#038048;stroke-width:1;"/><text fill="#AAAAAA" font-family="sans-serif" font-size="11" lengthAdjust="spacing" textLength="159.3009" x="39.5" y="688.4691">void clearExcludedDirectories()</text><ellipse cx="33.5" cy="700.183" fill="#84BE84" rx="3" ry="3" style="stroke:#038048;stroke-width:1;"/><text fill="#AAAAAA" font-family="sans-serif" font-size="11" lengthAdjust="spacing" textLength="170.9938" x="39.5" y="703.451">void setMaxDepth(int maxDepth)</text><ellipse cx="33.5" cy="715.1649" fill="#84BE84" rx="3" ry="3" style="stroke:#038048;stroke-width:1;"/><text fill="#AAAAAA" font-family="sans-serif" font-size="11" lengthAdjust="spacing" textLength="216.0495" x="39.5" y="718.4329">List&lt;File&gt; exploreDirectory(Path rootPath)</text><ellipse cx="33.5" cy="730.1468" fill="#84BE84" rx="3" ry="3" style="stroke:#038048;stroke-width:1;"/><text fill="#AAAAAA" font-family="sans-serif" font-size="11" lengthAdjust="spacing" textLength="144.1759" x="39.5" y="733.4148">List&lt;File&gt; exploreDirectory()</text><ellipse cx="33.5" cy="745.1287" fill="#84BE84" rx="3" ry="3" style="stroke:#038048;stroke-width:1;"/><text fill="#AAAAAA" font-family="sans-serif" font-size="11" lengthAdjust="spacing" textLength="328.3917" x="39.5" y="748.3967">JavaProject buildJavaProject(String projectName, Path rootPath)</text><rect fill="#F24D5C" height="6" style="stroke:#C82930;stroke-width:1;" width="6" x="30.5" y="757.1106"/><text fill="#AAAAAA" font-family="sans-serif" font-size="11" lengthAdjust="spacing" textLength="171.0157" x="39.5" y="763.3786">void addFileToGroup(File javafile)</text><rect fill="#F24D5C" height="6" style="stroke:#C82930;stroke-width:1;" width="6" x="30.5" y="772.0925"/><text fill="#AAAAAA" font-family="sans-serif" font-size="11" lengthAdjust="spacing" textLength="282.115" x="39.5" y="778.3604">String inferPackageName(Path filePath, Path rootPath)</text><rect fill="#F24D5C" height="6" style="stroke:#C82930;stroke-width:1;" width="6" x="30.5" y="787.0744"/><text fill="#AAAAAA" font-family="sans-serif" font-size="11" lengthAdjust="spacing" textLength="204.4335" x="39.5" y="793.3423">String inferPackageName(Path filePath)</text><rect fill="#F24D5C" height="6" style="stroke:#C82930;stroke-width:1;" width="6" x="30.5" y="802.0563"/><text fill="#AAAAAA" font-family="sans-serif" font-size="11" lengthAdjust="spacing" textLength="184.7547" x="39.5" y="808.3242">Path findSourceRoot(Path rootPath)</text><rect fill="#F24D5C" height="6" style="stroke:#C82930;stroke-width:1;" width="6" x="30.5" y="817.0381"/><text fill="#AAAAAA" font-family="sans-serif" font-size="11" lengthAdjust="spacing" textLength="163.8878" x="39.5" y="823.3061">boolean isJavaFile(Path filePath)</text><rect fill="#F24D5C" height="6" style="stroke:#C82930;stroke-width:1;" width="6" x="30.5" y="832.02"/><text fill="#AAAAAA" font-family="sans-serif" font-size="11" lengthAdjust="spacing" textLength="171.9508" x="39.5" y="838.288">boolean isExcluded(Path filePath)</text><ellipse cx="33.5" cy="850.0019" fill="#84BE84" rx="3" ry="3" style="stroke:#038048;stroke-width:1;"/><text fill="#AAAAAA" font-family="sans-serif" font-size="11" lengthAdjust="spacing" textLength="222.5504" x="39.5" y="853.2699">Map&lt;String,List&lt;File&gt;&gt; getFilesByPackage()</text><rect fill="#F24D5C" height="6" style="stroke:#C82930;stroke-width:1;" width="6" x="30.5" y="861.9838"/><text fill="#AAAAAA" font-family="sans-serif" font-size="11" lengthAdjust="spacing" textLength="211.0335" x="39.5" y="868.2518">void clearCurrentProjectFilesByPackage()</text><ellipse cx="33.5" cy="879.9657" fill="#84BE84" rx="3" ry="3" style="stroke:#038048;stroke-width:1;"/><text fill="#AAAAAA" font-family="sans-serif" font-size="11" lengthAdjust="spacing" textLength="250.0172" x="39.5" y="883.2337">List&lt;ExplorationError&gt; getCurrentProjectErrors()</text><ellipse cx="33.5" cy="894.9476" fill="#84BE84" rx="3" ry="3" style="stroke:#038048;stroke-width:1;"/><text fill="#AAAAAA" font-family="sans-serif" font-size="11" lengthAdjust="spacing" textLength="177.0877" x="39.5" y="898.2155">boolean currentProjectHasErrors()</text><ellipse cx="33.5" cy="909.9295" fill="#84BE84" rx="3" ry="3" style="stroke:#038048;stroke-width:1;"/><text fill="#AAAAAA" font-family="sans-serif" font-size="11" lengthAdjust="spacing" textLength="163.9648" x="39.5" y="913.1974">void clearCurrentProjectErrors()</text><ellipse cx="33.5" cy="924.9114" fill="#84BE84" rx="3" ry="3" style="stroke:#038048;stroke-width:1;"/><text fill="#AAAAAA" font-family="sans-serif" font-size="11" lengthAdjust="spacing" textLength="189.4076" x="39.5" y="928.1793">long getEllapsedTimeOfExploration()</text><ellipse cx="33.5" cy="939.8932" fill="#84BE84" rx="3" ry="3" style="stroke:#038048;stroke-width:1;"/><text fill="#AAAAAA" font-family="sans-serif" font-size="11" lengthAdjust="spacing" textLength="194.3136" x="39.5" y="943.1612">String getStatisticsOnCurrentProject()</text></g><!--class ExplorationError--><g class="entity" data-entity="ExplorationError" data-source-line="46" data-uid="ent0004" id="entity_ExplorationError"><rect fill="#2E2E2E" height="191.8189" rx="2.5" ry="2.5" style="stroke:#1B1B1B;stroke-width:0.5;" width="339.9518" x="53" y="1026"/><ellipse cx="176.6917" cy="1039" fill="#880000" rx="8" ry="8" style="stroke:#181818;stroke-width:1;"/><path d="M176.5198,1036.4219 Q175.5511,1036.4219 175.0511,1037.1406 Q174.5511,1037.8594 174.5511,1039.0938 Q174.5511,1040.3438 175.0042,1041.0313 Q175.4729,1041.7188 176.5198,1041.7188 Q177.0042,1041.7188 177.4729,1041.6094 Q177.9573,1041.5 178.5198,1041.3125 L178.5198,1042.7031 Q178.0042,1042.9063 177.4886,1043 Q176.9886,1043.1094 176.3636,1043.1094 Q175.1448,1043.1094 174.3636,1042.6094 Q173.5823,1042.1094 173.2073,1041.2031 Q172.8323,1040.2969 172.8323,1039.0781 Q172.8323,1037.8906 173.2542,1036.9844 Q173.6917,1036.0625 174.5042,1035.5469 Q175.3323,1035.0313 176.5198,1035.0313 Q177.0979,1035.0313 177.6761,1035.1875 Q178.2698,1035.3281 178.8167,1035.5938 L178.2698,1036.9375 Q177.8323,1036.7344 177.3792,1036.5781 Q176.9417,1036.4219 176.5198,1036.4219 Z " fill="#000000"/><text fill="#AAAAAA" font-family="Verdana" font-size="11" lengthAdjust="spacing" textLength="85.5684" x="192.6917" y="1043.268">ExplorationError</text><line style="stroke:#1B1B1B;stroke-width:0.5;" x1="54" x2="391.9518" y1="1052" y2="1052"/><rect fill="none" height="6" style="stroke:#C82930;stroke-width:1;" width="6" x="61" y="1061.4909"/><text fill="#AAAAAA" font-family="sans-serif" font-size="11" lengthAdjust="spacing" text-decoration="underline" textLength="195.2926" x="70" y="1067.7589">long serialVersionUID = 1L {readOnly}</text><rect fill="none" height="6" style="stroke:#C82930;stroke-width:1;" width="6" x="61" y="1076.4728"/><text fill="#AAAAAA" font-family="sans-serif" font-size="11" lengthAdjust="spacing" textLength="108.8992" x="70" y="1082.7408">Path path {readOnly}</text><rect fill="none" height="6" style="stroke:#C82930;stroke-width:1;" width="6" x="61" y="1091.4547"/><text fill="#AAAAAA" font-family="sans-serif" font-size="11" lengthAdjust="spacing" textLength="138.72" x="70" y="1097.7227">String message {readOnly}</text><rect fill="none" height="6" style="stroke:#C82930;stroke-width:1;" width="6" x="61" y="1106.4366"/><text fill="#AAAAAA" font-family="sans-serif" font-size="11" lengthAdjust="spacing" textLength="141.767" x="70" y="1112.7046">Exception cause {readOnly}</text><line style="stroke:#1B1B1B;stroke-width:0.5;" x1="54" x2="391.9518" y1="1119.9276" y2="1119.9276"/><ellipse cx="64" cy="1132.4185" fill="#84BE84" rx="3" ry="3" style="stroke:#038048;stroke-width:1;"/><text fill="#AAAAAA" font-family="sans-serif" font-size="11" lengthAdjust="spacing" textLength="316.9518" x="70" y="1135.6865">ExplorationError(Path path, String message, Exception cause)</text><text fill="#AAAAAA" font-family="sans-serif" font-size="11" lengthAdjust="spacing" textLength="2.86" x="70" y="1150.6684">&#160;</text><ellipse cx="64" cy="1162.3823" fill="#84BE84" rx="3" ry="3" style="stroke:#038048;stroke-width:1;"/><text fill="#AAAAAA" font-family="sans-serif" font-size="11" lengthAdjust="spacing" textLength="73.5895" x="70" y="1165.6502">Path getPath()</text><ellipse cx="64" cy="1177.3642" fill="#84BE84" rx="3" ry="3" style="stroke:#038048;stroke-width:1;"/><text fill="#AAAAAA" font-family="sans-serif" font-size="11" lengthAdjust="spacing" textLength="103.2123" x="70" y="1180.6321">String getMessage()</text><ellipse cx="64" cy="1192.346" fill="#84BE84" rx="3" ry="3" style="stroke:#038048;stroke-width:1;"/><text fill="#AAAAAA" font-family="sans-serif" font-size="11" lengthAdjust="spacing" textLength="108.2392" x="70" y="1195.614">Exception getCause()</text><ellipse cx="64" cy="1207.3279" fill="#84BE84" rx="3" ry="3" style="stroke:#038048;stroke-width:1;"/><text fill="#AAAAAA" font-family="sans-serif" font-size="11" lengthAdjust="spacing" textLength="81.9934" x="70" y="1210.5959">String toString()</text></g><!--class ASTProcessor--><g class="entity" data-entity="ASTProcessor" data-source-line="60" data-uid="ent0005" id="entity_ASTProcessor"><rect fill="#2E2E2E" height="191.8189" rx="2.5" ry="2.5" style="stroke:#1B1B1B;stroke-width:0.5;" width="250.9734" x="273.5" y="131"/><ellipse cx="360.3585" cy="144" fill="#880000" rx="8" ry="8" style="stroke:#181818;stroke-width:1;"/><path d="M360.1866,141.4219 Q359.2178,141.4219 358.7178,142.1406 Q358.2178,142.8594 358.2178,144.0938 Q358.2178,145.3438 358.671,146.0313 Q359.1397,146.7188 360.1866,146.7188 Q360.671,146.7188 361.1397,146.6094 Q361.6241,146.5 362.1866,146.3125 L362.1866,147.7031 Q361.671,147.9063 361.1553,148 Q360.6553,148.1094 360.0303,148.1094 Q358.8116,148.1094 358.0303,147.6094 Q357.2491,147.1094 356.8741,146.2031 Q356.4991,145.2969 356.4991,144.0781 Q356.4991,142.8906 356.921,141.9844 Q357.3585,141.0625 358.171,140.5469 Q358.9991,140.0313 360.1866,140.0313 Q360.7647,140.0313 361.3428,140.1875 Q361.9366,140.3281 362.4835,140.5938 L361.9366,141.9375 Q361.4991,141.7344 361.046,141.5781 Q360.6085,141.4219 360.1866,141.4219 Z " fill="#000000"/><text fill="#AAAAAA" font-family="Verdana" font-size="11" lengthAdjust="spacing" textLength="70.2565" x="376.3585" y="148.268">ASTProcessor</text><line style="stroke:#1B1B1B;stroke-width:0.5;" x1="274.5" x2="523.4734" y1="157" y2="157"/><rect fill="none" height="6" style="stroke:#C82930;stroke-width:1;" width="6" x="281.5" y="166.4909"/><text fill="#AAAAAA" font-family="sans-serif" font-size="11" lengthAdjust="spacing" textLength="146.948" x="290.5" y="172.7589">List&lt;BaseASTVisitor&gt; visitors</text><rect fill="none" height="6" style="stroke:#C82930;stroke-width:1;" width="6" x="281.5" y="181.4728"/><text fill="#AAAAAA" font-family="sans-serif" font-size="11" lengthAdjust="spacing" textLength="165.5929" x="290.5" y="187.7408">List&lt;MetricExtractor&gt; extractors</text><rect fill="none" height="6" style="stroke:#C82930;stroke-width:1;" width="6" x="281.5" y="196.4547"/><text fill="#AAAAAA" font-family="sans-serif" font-size="11" lengthAdjust="spacing" textLength="161.5229" x="290.5" y="202.7227">ASTParserFacade parserFacade</text><rect fill="none" height="6" style="stroke:#C82930;stroke-width:1;" width="6" x="281.5" y="211.4366"/><text fill="#AAAAAA" font-family="sans-serif" font-size="11" lengthAdjust="spacing" textLength="126.0591" x="290.5" y="217.7046">ProjectExplorer explorer</text><rect fill="none" height="6" style="stroke:#C82930;stroke-width:1;" width="6" x="281.5" y="226.4185"/><text fill="#AAAAAA" font-family="sans-serif" font-size="11" lengthAdjust="spacing" textLength="145.969" x="290.5" y="232.6865">StatisticCalculator calculator</text><line style="stroke:#1B1B1B;stroke-width:0.5;" x1="274.5" x2="523.4734" y1="239.9094" y2="239.9094"/><ellipse cx="284.5" cy="252.4004" fill="#84BE84" rx="3" ry="3" style="stroke:#038048;stroke-width:1;"/><text fill="#AAAAAA" font-family="sans-serif" font-size="11" lengthAdjust="spacing" textLength="216.8525" x="290.5" y="255.6684">AnalysisResult processProject(String path)</text><ellipse cx="284.5" cy="267.3823" fill="#84BE84" rx="3" ry="3" style="stroke:#038048;stroke-width:1;"/><text fill="#AAAAAA" font-family="sans-serif" font-size="11" lengthAdjust="spacing" textLength="194.9736" x="290.5" y="270.6502">void addVisitor(BaseASTVisitor visitor)</text><ellipse cx="284.5" cy="282.3642" fill="#84BE84" rx="3" ry="3" style="stroke:#038048;stroke-width:1;"/><text fill="#AAAAAA" font-family="sans-serif" font-size="11" lengthAdjust="spacing" textLength="227.9734" x="290.5" y="285.6321">void addExtractor(MetricExtractor extractor)</text><ellipse cx="284.5" cy="297.346" fill="#84BE84" rx="3" ry="3" style="stroke:#038048;stroke-width:1;"/><text fill="#AAAAAA" font-family="sans-serif" font-size="11" lengthAdjust="spacing" textLength="205.9625" x="290.5" y="300.614">void executeVisitors(JavaProject project)</text><ellipse cx="284.5" cy="312.3279" fill="#84BE84" rx="3" ry="3" style="stroke:#038048;stroke-width:1;"/><text fill="#AAAAAA" font-family="sans-serif" font-size="11" lengthAdjust="spacing" textLength="221.1644" x="290.5" y="315.5959">void calculateMetrics(AnalysisResult result)</text></g><!--class AnalysisResult--><g class="entity" data-entity="AnalysisResult" data-source-line="74" data-uid="ent0006" id="entity_AnalysisResult"><rect fill="#2E2E2E" height="146.8732" rx="2.5" ry="2.5" style="stroke:#1B1B1B;stroke-width:0.5;" width="240.0065" x="458" y="601"/><ellipse cx="537.6315" cy="614" fill="#880000" rx="8" ry="8" style="stroke:#181818;stroke-width:1;"/><path d="M537.4596,611.4219 Q536.4909,611.4219 535.9909,612.1406 Q535.4909,612.8594 535.4909,614.0938 Q535.4909,615.3438 535.944,616.0313 Q536.4128,616.7188 537.4596,616.7188 Q537.944,616.7188 538.4128,616.6094 Q538.8971,616.5 539.4596,616.3125 L539.4596,617.7031 Q538.944,617.9063 538.4284,618 Q537.9284,618.1094 537.3034,618.1094 Q536.0846,618.1094 535.3034,617.6094 Q534.5221,617.1094 534.1471,616.2031 Q533.7721,615.2969 533.7721,614.0781 Q533.7721,612.8906 534.194,611.9844 Q534.6315,611.0625 535.444,610.5469 Q536.2721,610.0313 537.4596,610.0313 Q538.0378,610.0313 538.6159,610.1875 Q539.2096,610.3281 539.7565,610.5938 L539.2096,611.9375 Q538.7721,611.7344 538.319,611.5781 Q537.8815,611.4219 537.4596,611.4219 Z " fill="#000000"/><text fill="#AAAAAA" font-family="Verdana" font-size="11" lengthAdjust="spacing" textLength="73.7435" x="553.6315" y="618.268">AnalysisResult</text><line style="stroke:#1B1B1B;stroke-width:0.5;" x1="459" x2="697.0065" y1="627" y2="627"/><rect fill="none" height="6" style="stroke:#C82930;stroke-width:1;" width="6" x="466" y="636.4909"/><text fill="#AAAAAA" font-family="sans-serif" font-size="11" lengthAdjust="spacing" textLength="96.1943" x="475" y="642.7589">JavaProject project</text><rect fill="none" height="6" style="stroke:#C82930;stroke-width:1;" width="6" x="466" y="651.4728"/><text fill="#AAAAAA" font-family="sans-serif" font-size="11" lengthAdjust="spacing" textLength="144.297" x="475" y="657.7408">Map&lt;String,Object&gt; metrics</text><rect fill="none" height="6" style="stroke:#C82930;stroke-width:1;" width="6" x="466" y="666.4547"/><text fill="#AAAAAA" font-family="sans-serif" font-size="11" lengthAdjust="spacing" textLength="117.0502" x="475" y="672.7227">List&lt;ClassInfo&gt; classes</text><rect fill="none" height="6" style="stroke:#C82930;stroke-width:1;" width="6" x="466" y="681.4366"/><text fill="#AAAAAA" font-family="sans-serif" font-size="11" lengthAdjust="spacing" textLength="157.1999" x="475" y="687.7046">List&lt;MethodCall&gt; methodCalls</text><line style="stroke:#1B1B1B;stroke-width:0.5;" x1="459" x2="697.0065" y1="694.9276" y2="694.9276"/><ellipse cx="469" cy="707.4185" fill="#84BE84" rx="3" ry="3" style="stroke:#038048;stroke-width:1;"/><text fill="#AAAAAA" font-family="sans-serif" font-size="11" lengthAdjust="spacing" textLength="217.0065" x="475" y="710.6865">void addMetric(String name, Object value)</text><ellipse cx="469" cy="722.4004" fill="#84BE84" rx="3" ry="3" style="stroke:#038048;stroke-width:1;"/><text fill="#AAAAAA" font-family="sans-serif" font-size="11" lengthAdjust="spacing" textLength="156.1329" x="475" y="725.6684">Object getMetric(String name)</text><ellipse cx="469" cy="737.3823" fill="#84BE84" rx="3" ry="3" style="stroke:#038048;stroke-width:1;"/><text fill="#AAAAAA" font-family="sans-serif" font-size="11" lengthAdjust="spacing" textLength="119.6242" x="475" y="740.6502">JavaProject getProject()</text></g><g class="entity" data-entity="TODO_CORE" data-source-line="93" data-uid="ent0010" id="entity_TODO_CORE"><path d="M403,6 L403,45.9638 L573.4889,45.9638 L573.4889,16 L563.4889,6 L403,6" fill="#880000" style="stroke:#330000;stroke-width:0.5;"/><path d="M563.4889,6 L563.4889,16 L573.4889,16 L563.4889,6" fill="#880000" style="stroke:#330000;stroke-width:1;"/><text fill="#FFFFFF" font-family="Verdana" font-size="11" lengthAdjust="spacing" textLength="34.2758" x="409" y="22.7589">TODO:</text><text fill="#FFFFFF" font-family="Verdana" font-size="11" lengthAdjust="spacing" textLength="149.4889" x="409" y="37.7408">Will be implemented later on</text></g><!--link ProjectExplorer to ExplorationError--><g class="link" data-entity-1="ProjectExplorer" data-entity-2="ExplorationError" data-source-line="87" data-uid="lnk7" id="link_ProjectExplorer_ExplorationError"><path codeLine="87" d="M223,950.03 C223,976.89 223,996.69 223,1019.74" fill="none" id="ProjectExplorer-to-ExplorationError" style="stroke:#FFFFFF;stroke-width:1;"/><polygon fill="#FFFFFF" points="223,1025.74,227,1016.74,223,1020.74,219,1016.74,223,1025.74" style="stroke:#FFFFFF;stroke-width:1;"/><text fill="#BBBBBB" font-family="Verdana" font-size="11" lengthAdjust="spacing" textLength="18.2379" x="224" y="992.7589">has</text><text fill="#BBBBBB" font-family="Verdana" font-size="11" lengthAdjust="spacing" textLength="6.2919" x="216.9187" y="970.1854">1</text><text fill="#BBBBBB" font-family="Verdana" font-size="11" lengthAdjust="spacing" textLength="6.061" x="216.7469" y="1014.675">*</text></g><!--link ASTProcessor to ProjectExplorer--><g class="link" data-entity-1="ASTProcessor" data-entity-2="ProjectExplorer" data-source-line="89" data-uid="lnk8" id="link_ASTProcessor_ProjectExplorer"><path codeLine="89" d="M361.46,323.02 C352.37,346.02 344.4043,366.1896 333.8143,392.9996" fill="none" id="ASTProcessor-to-ProjectExplorer" style="stroke:#FFFFFF;stroke-width:1;"/><polygon fill="#FFFFFF" points="331.61,398.58,338.6367,391.6789,333.4469,393.9296,331.1961,388.7398,331.61,398.58" style="stroke:#FFFFFF;stroke-width:1;"/><text fill="#BBBBBB" font-family="Verdana" font-size="11" lengthAdjust="spacing" textLength="23.5398" x="347" y="365.7589">uses</text><text fill="#BBBBBB" font-family="Verdana" font-size="11" lengthAdjust="spacing" textLength="6.2919" x="352.3683" y="342.7109">1</text><text fill="#BBBBBB" font-family="Verdana" font-size="11" lengthAdjust="spacing" textLength="6.2919" x="328.753" y="387.9486">1</text></g><!--link ASTProcessor to AnalysisResult--><g class="link" data-entity-1="ASTProcessor" data-entity-2="AnalysisResult" data-source-line="90" data-uid="lnk9" id="link_ASTProcessor_AnalysisResult"><path codeLine="90" d="M437.18,323.02 C470.6,406.2 516.203,519.7026 546.623,595.4126" fill="none" id="ASTProcessor-to-AnalysisResult" style="stroke:#FFFFFF;stroke-width:1;"/><polygon fill="#FFFFFF" points="548.86,600.98,549.2162,591.1376,546.9959,596.3405,541.793,594.1202,548.86,600.98" style="stroke:#FFFFFF;stroke-width:1;"/><text fill="#BBBBBB" font-family="Verdana" font-size="11" lengthAdjust="spacing" textLength="37.6417" x="452" y="365.7589">creates</text><text fill="#BBBBBB" font-family="Verdana" font-size="11" lengthAdjust="spacing" textLength="6.2919" x="433.8857" y="342.7109">1</text><text fill="#BBBBBB" font-family="Verdana" font-size="11" lengthAdjust="spacing" textLength="6.2919" x="539.3603" y="589.9927">1</text></g><!--link TODO_CORE to AnalysisResult--><g class="link" data-entity-1="TODO_CORE" data-entity-2="AnalysisResult" data-source-line="95" data-uid="lnk11" id="link_TODO_CORE_AnalysisResult"><path codeLine="95" d="M512.3,46.13 C523.42,56.36 535.54,69.95 542,85 C616.18,257.84 602.42,485.76 588.74,600.64" fill="none" id="TODO_CORE-AnalysisResult" style="stroke:#FFFFFF;stroke-width:1;stroke-dasharray:7,7;"/></g><!--link TODO_CORE to ASTProcessor--><g class="link" data-entity-1="TODO_CORE" data-entity-2="ASTProcessor" data-source-line="96" data-uid="lnk12" id="link_TODO_CORE_ASTProcessor"><path codeLine="96" d="M479.47,46.08 C470.59,65.93 456.01,98.52 441.69,130.55" fill="none" id="TODO_CORE-ASTProcessor" style="stroke:#FFFFFF;stroke-width:1;stroke-dasharray:7,7;"/></g><!--SRC=[ZLVVSzeu47xtNw7ZfUGIEkrhfcM64jhIIs8cSBsNcxaHyW9gXEIHv0mqa_-zArl6ih1pzGEMfM_tsrzQYJ_i3lP0D6IP1cD66TMF-96yCOzSvbJJFM626ZEnLlDrOM7Eb5podq3U9Gqaf-oHRc5fZyBfOfRAhO0aUKC-1WzPJAP_JRxCbgtPn0kJ0LCQ1kGv8VYKf6IXrG_KDZla0jUqNtFFYDnoOpyigBMWvPZ0WOaYWynF6FAiWMQf5CUNM6Q9diXj8tB3dSLAS-YHujAIFJtSG6vtmJHIxGWhj0PflQ4FIbat7Q3kQEuPhqhsprp0U1p9VT6go25pQ-RJSU43qkz25H1gkP8phPMEzPMJFTu89RSHVCNtc3kgxV_3PZ9BJgZBE473YrVMmZ1U907La-8PCM2BV1PbCT3N1Giors8kaJJB8dN3AWzOhULdfqHRyR4MoUg9Uxg7Cq4cWEfNRE-2lMexUddd8nM5hG4srOILN8QuiReiJUsByNU5Gjmt-aHz_iYwu28B9avXh3vTHAv83-Fe55b7kb9beG_TcFn0ZHiSX62lcSiDQByBdFhA7mTsWrV8Val-8jx36owpfIeq0xT_XxtQrqfX1YNXnaN3ET6lkC7M2U_3NlQrY2tOTaCutmrbHKrRcxHNvBAlTI3FjADxj4HhTzeDuIir7TW-opgWPPD1_faGD3UGkGwJRW8JMsYVNSHZixBe36ScbMqIB_2I1AT8x7Bh67asJXTxgMmne3aLtq4R1Fyzlo4VoVlRxZvQfZDtFvtBtjWz7ggzlHnB0tSrCX562zC21Mx7vWzFp5SHorMiyQBLgvqO1i-zU-9wL-bfhJOgNQ4uhLt2LbM3hlXFbYlC3aFTgkC8_qGD8E8xDzowSdog1YR6tG4IiDd1QifA8DJ34EgugCOqVgQCPe1XQZx2v4KN2zyCTIk1liQcLB12K2J2eDR3CB0JISNHSFC0fX3MzKNdQzmjeqrVzqNlzx0TXZeAtQUQztiOXQI9o9aO783XvSrhDyEml_i-Vhw5lRDGqPXXvASkNrtvRkF2Z7VmTj-LqhLR6sDbbznnCKmTqLnkrBZYXAvosQaCSoTA9Nviaew0LlxLYPBbULRnaoSgYjPvx-VBlH9BzHsWRiz5tUdbx6xyCBkThERf_VBhV15TaEDY7RmVaD5eJ0P_3ivxspNPKVIojUTE0lYEbLsJmaMl5nybyvemR58M9M87xjDLVBENokArVfNUfDV_od-u46GDXEzpWNyvf8MCkEhIHCa1eOOut7_Jz66M9ASXUVisiY1Q2ynEVW40]--></g></svg>